<svg id="Компонент_91_1" data-name="Компонент 91 – 1" xmlns="http://www.w3.org/2000/svg" width="150" height="54" viewBox="0 0 150 54">
  <rect id="Прямоугольник_294" data-name="Прямоугольник 294" width="150" height="54" rx="8" fill="#f44336"/>
  <g id="google-plus_1_" data-name="google-plus (1)" transform="translate(63 15.5)">
    <path id="Контур_70" data-name="Контур 70" d="M17.833,40.167c10.291,0,17.127-7.224,17.127-17.42a15.238,15.238,0,0,0-.29-2.967H17.836v6.13H27.958c-.414,2.6-3.065,7.687-10.122,7.687a11.267,11.267,0,0,1,0-22.529,10.019,10.019,0,0,1,7.1,2.749L29.782,9.17A17.054,17.054,0,0,0,17.833,4.5a17.833,17.833,0,1,0,0,35.667Z" transform="translate(-5 -11)" fill="#fff"/>
  </g>
</svg>
