<svg xmlns="http://www.w3.org/2000/svg" width="144" height="38" viewBox="0 0 143.832 36.95"><path d="M52.946,6.4l1.111,4.162L41.5,13.936a1.228,1.228,0,0,0-.758.547,1.074,1.074,0,0,0-.123.811,1.023,1.023,0,0,0,.511.635,1.294,1.294,0,0,0,.935.106l6.949-1.87a8.1,8.1,0,0,1,5.944.688,7.3,7.3,0,0,1,3.633,4.568h0l.018.071a7.426,7.426,0,0,1-.882,5.714c-3.4,5.573-13.44,4.974-18.8,4.974L37.831,26.07c4.921-1.235,8.148-2.187,13.069-3.457h0a1.207,1.207,0,0,0,.705-.529,1.094,1.094,0,0,0,.141-.811l-.018-.018h0a.98.98,0,0,0-.511-.635,1.294,1.294,0,0,0-.935-.106l-6.949,1.87a8.125,8.125,0,0,1-5.926-.688,7.434,7.434,0,0,1-3.651-4.568,7.319,7.319,0,0,1,.882-5.767C37.955,5.928,47.479,6.4,52.946,6.4Z" transform="translate(25.592 4.883)" fill="#2b2a29"/><path d="M38.2,6.4l1.111,4.162L26.757,13.936a1.24,1.24,0,0,0-.741.547.938.938,0,0,0-.123.811,1.023,1.023,0,0,0,.511.635,1.258,1.258,0,0,0,.917.106l6.949-1.87a8.074,8.074,0,0,1,5.944.688,7.387,7.387,0,0,1,3.651,4.568h-.018l.018.071a7.351,7.351,0,0,1-.882,5.714c-3.4,5.573-13.422,4.974-18.8,4.974L23.088,26.07c4.938-1.235,8.148-2.187,13.069-3.457h0a1.247,1.247,0,0,0,.723-.529A1.087,1.087,0,0,0,37,21.273v-.018h0a1.06,1.06,0,0,0-.529-.635,1.247,1.247,0,0,0-.917-.106l-6.949,1.87a8.16,8.16,0,0,1-5.944-.688A7.277,7.277,0,0,1,19.9,11.361C23.211,5.928,32.753,6.4,38.2,6.4Z" transform="translate(14.338 4.883)" fill="#2b2a29"/><path d="M74.271,6.4l1.111,4.162L62.824,13.936a1.24,1.24,0,0,0-.741.547.938.938,0,0,0-.123.811,1.023,1.023,0,0,0,.511.635,1.258,1.258,0,0,0,.917.106l6.967-1.87a8.038,8.038,0,0,1,5.926.688,7.387,7.387,0,0,1,3.651,4.568h-.018l.018.071a7.351,7.351,0,0,1-.882,5.714c-3.4,5.573-13.422,4.974-18.8,4.974L59.155,26.07c4.938-1.235,8.148-2.187,13.069-3.457h0a1.247,1.247,0,0,0,.723-.529,1.087,1.087,0,0,0,.123-.811v-.018h0a1.06,1.06,0,0,0-.529-.635,1.247,1.247,0,0,0-.917-.106l-6.949,1.87a8.16,8.16,0,0,1-5.944-.688,7.313,7.313,0,0,1-2.769-10.335C59.279,5.928,68.821,6.4,74.271,6.4Z" transform="translate(41.888 4.883)" fill="#2b2a29"/><path d="M56.076,7.488V30.152H49.55V6.43h6.526Z" transform="translate(37.842 4.911)" fill="#2b2a29"/><path d="M79.19,11.57V33.864H72.665V13.369l-3.475.952V8.431l3.475-.952V1.57H79.19V5.662l3.51-.97V10.6Z" transform="translate(52.842 1.199)" fill="#2b2a29"/><path d="M53.187,0a4.086,4.086,0,0,1,2.928,1.182,4.173,4.173,0,0,1,1.2,2.945,4.131,4.131,0,0,1-1.2,2.928,4.218,4.218,0,0,1-5.856,0,4.131,4.131,0,0,1-1.2-2.928,4.173,4.173,0,0,1,1.2-2.945A4.086,4.086,0,0,1,53.187,0Z" transform="translate(37.468)" fill="#2b2a29"/><path d="M22.823,25.1,10.265,28.562,8.078,34.894H0L12.646.06h9.048L34.34,34.894H26.209L22.823,25.1Zm-9.965-4.021,7.831-2.169L17.161,8.667l-4.3,12.417Z" transform="translate(0 0.046)" fill="#2b2a29"/><path d="M80.989,24.517a4.153,4.153,0,1,0-4.109-4.127,4.037,4.037,0,0,0,4.109,4.127Z" transform="translate(58.715 12.433)" fill="#e31e24"/></svg>