<svg height="512" viewBox="0 0 24 24" width="512" xmlns="http://www.w3.org/2000/svg"><path d="m21 22.271v-19.565c0-1.492-1.208-2.706-2.691-2.706h-12.618c-1.483 0-2.691 1.214-2.691 2.706v19.564c0 .65.358 1.239.934 1.537.573.295 1.255.247 1.781-.127l6.16-4.383c.074-.053.175-.053.25 0l6.16 4.383c.297.211.645.318.994.318.269 0 .538-.063.787-.191.576-.297.934-.886.934-1.536zm-1.5 0c0 .122-.077.181-.122.204-.053.026-.134.047-.224-.017l-6.16-4.383c-.595-.423-1.394-.423-1.988 0l-6.16 4.383c-.089.063-.171.043-.224.017-.045-.024-.122-.082-.122-.204v-19.565c0-.665.535-1.206 1.191-1.206h12.617c.657 0 1.191.541 1.191 1.206v19.565z"/></svg>