<svg xmlns="http://www.w3.org/2000/svg" width="9.049" height="16.383" viewBox="0 0 9.049 16.383"><defs><style>.a{fill:#484848;stroke:#484848;stroke-width:0.51px;}</style></defs><path class="a" d="M-2.072,0A3.069,3.069,0,0,0-5.183,3.017v7.272a1.928,1.928,0,0,0,1.953,1.9,1.928,1.928,0,0,0,1.952-1.9V6.6a.4.4,0,0,0-.4-.4.4.4,0,0,0-.4.4v3.693a1.134,1.134,0,0,1-1.16,1.1,1.133,1.133,0,0,1-1.158-1.1V3.017A2.275,2.275,0,0,1-2.072.794,2.275,2.275,0,0,1,.245,3.017v8.72A3.415,3.415,0,0,1-3.23,15.079a3.415,3.415,0,0,1-3.476-3.342V6.6a.4.4,0,0,0-.4-.4.4.4,0,0,0-.4.4v5.141a4.209,4.209,0,0,0,4.27,4.136,4.209,4.209,0,0,0,4.27-4.136V3.017A3.069,3.069,0,0,0-2.072,0Zm0,0" transform="translate(7.755 0.255)"/></svg>