<svg xmlns="http://www.w3.org/2000/svg" width="96.481" height="102.637"><path data-name="Path 179" d="M15.792 37.391a2.476 2.476 0 0 1-3.606-3.394 40.731 40.731 0 0 1 57.378-2L91.998 1.023a2.478 2.478 0 0 1 4.014 2.907L73.044 35.647A40.733 40.733 0 1 1 1.612 55.628a40.363 40.363 0 0 1 1.439-6.09 2.471 2.471 0 0 1 4.711 1.493 35.587 35.587 0 0 0-1.246 5.354 36.088 36.088 0 0 0-.418 5.512 35.782 35.782 0 1 0 63.934-22.091l-26.5 36.591a2.429 2.429 0 0 1-.329.407 2.481 2.481 0 0 1-3.508 0L.727 37.837a2.48 2.48 0 0 1 3.508-3.508l36.914 36.913L66.63 36.053a35.732 35.732 0 0 0-50.838 1.338Z" fill="red"/></svg>
