<svg xmlns="http://www.w3.org/2000/svg" width="26.089" height="26" viewBox="0 0 26.089 26"><path d="M5.351,26A5.34,5.34,0,0,1,0,20.684V6.617A5.34,5.34,0,0,1,5.351,1.3H15.682a1.17,1.17,0,1,1,0,2.341H5.351a2.989,2.989,0,0,0-3,2.975V20.684a2.989,2.989,0,0,0,3,2.976H19.624a2.988,2.988,0,0,0,2.994-2.976V10.75a1.178,1.178,0,0,1,2.355,0v9.934A5.339,5.339,0,0,1,19.624,26Zm6.119-9.782a1.342,1.342,0,0,1-.167-1.155l1.069-3.376a.933.933,0,0,1,.184-.33L21.645.872A2.453,2.453,0,0,1,25.238.7l.024.023a2.785,2.785,0,0,1,.163,3.786L16.337,14.995a.888.888,0,0,1-.3.224l-3.094,1.426a1.159,1.159,0,0,1-.49.109A1.2,1.2,0,0,1,11.47,16.218Zm2.508-3.759-.627,1.981,1.816-.837.053-.06L14.031,12.4ZM22.941,2.12l-7.726,8.914L16.4,12.177l7.726-8.914a.862.862,0,0,0-.05-1.173l-.024-.023a.76.76,0,0,0-1.113.052Z"/></svg>