<svg xmlns="http://www.w3.org/2000/svg" width="18.87" height="18.87" viewBox="0 0 18.87 18.87"><defs><style>.a{fill:#484848;}</style></defs><g transform="translate(-539 -3924)"><g transform="translate(401 1021)"><path class="a" d="M309.88,1861.315v-1.295a.555.555,0,1,1,1.11,0v1.295a.555.555,0,1,1-1.11,0Zm4.4-.54-.739-1.3a.555.555,0,0,1,.964-.55l.739,1.3a.555.555,0,1,1-.964.55Zm-8.443.207a.555.555,0,0,1-.207-.757l.739-1.3a.555.555,0,0,1,.964.55l-.739,1.3a.554.554,0,0,1-.757.207Zm-4.709-8.195a.555.555,0,0,1,0-.7,11.833,11.833,0,0,1,18.618,0,.554.554,0,0,1,0,.7,11.833,11.833,0,0,1-18.618,0Zm5.539-.352a3.77,3.77,0,1,0,3.77-3.77A3.774,3.774,0,0,0,306.665,1852.435Zm7.655,2.95a13.4,13.4,0,0,0,4.245-2.95,13.156,13.156,0,0,0-4.245-2.949A4.868,4.868,0,0,1,314.32,1855.385Zm-12.016-2.949a13.155,13.155,0,0,0,4.245,2.948,4.867,4.867,0,0,1,0-5.9A13.4,13.4,0,0,0,302.3,1852.435Zm6.243,0a1.887,1.887,0,1,1,1.887,1.887A1.889,1.889,0,0,1,308.548,1852.435Zm1.11,0a.777.777,0,1,0,.777-.777A.778.778,0,0,0,309.658,1852.435Zm4.088-6.287a.556.556,0,0,1-.207-.757l.739-1.295a.555.555,0,1,1,.964.55l-.739,1.3a.555.555,0,0,1-.757.207Zm-7.38-.207-.739-1.3a.555.555,0,0,1,.964-.55l.739,1.295a.555.555,0,0,1-.964.55Zm3.514-1.09v-1.3a.555.555,0,1,1,1.11,0v1.3a.555.555,0,0,1-1.11,0Z" transform="translate(-163 1060)"/></g></g></svg>