<svg xmlns="http://www.w3.org/2000/svg" width="16" height="16" viewBox="0 0 16 16" fill="currentColor">
    <path d="M.625,67.25H7.906a.625.625,0,0,0,0-1.25H.625a.625.625,0,0,0,0,1.25Z" transform="translate(0 -63.938)"/>
    <path d="M314.875,5.344a1.877,1.877,0,0,0,1.875-1.875V3.312h1.844a.625.625,0,1,0,0-1.25H316.75V1.875a1.875,1.875,0,0,0-3.75,0V3.469A1.877,1.877,0,0,0,314.875,5.344Zm-.625-3.469a.625.625,0,0,1,1.25,0V3.469a.625.625,0,0,1-1.25,0Z" transform="translate(-303.219)"/>
    <path d="M7.9,407H.625a.625.625,0,1,0,0,1.25H7.9a.625.625,0,1,0,0-1.25Z" transform="translate(0 -394.281)"/>
    <path d="M.625,237.128H2.406a.625.625,0,0,0,0-1.25H.625a.625.625,0,0,0,0,1.25Z" transform="translate(0 -228.507)"/>
    <path d="M148.094,171.09H140.75v-.215a1.875,1.875,0,1,0-3.75,0V172.5a1.875,1.875,0,1,0,3.75,0v-.16h7.344a.625.625,0,1,0,0-1.25ZM139.5,172.5a.625.625,0,0,1-1.25,0v-1.625a.625.625,0,0,1,1.25,0Z" transform="translate(-132.719 -163.719)"/>
    <path d="M318.549,343.063H316.7v-.187a1.875,1.875,0,0,0-3.75,0v1.594a1.875,1.875,0,0,0,3.75,0v-.156h1.845a.625.625,0,0,0,0-1.25Zm-3.1,1.406a.625.625,0,0,1-1.25,0v-1.594a.625.625,0,0,1,1.25,0Z" transform="translate(-303.174 -330.344)"/>
</svg>