<svg xmlns="http://www.w3.org/2000/svg" width="15.2" height="19.132" viewBox="0 0 15.2 19.132"><path d="M64.441,5.972C61.027,3.894,62.628.962,62.7.84A.56.56,0,0,0,62.211,0a5.465,5.465,0,0,0-4.091,1.485c-1.635,1.683-1.559,4.3-1.527,5.422,0,.124.007.231.007.311a13.039,13.039,0,0,0,.251,2.274A9.307,9.307,0,0,1,57,10.6c.012.317-.045.39-.048.392a.46.46,0,0,1-.263.046.629.629,0,0,1-.507-.225c-.541-.607-.578-2.263-.475-3.164a.56.56,0,0,0-.557-.625c-1.455,0-2.543,2.38-2.543,4.508a7.4,7.4,0,0,0,.6,2.912,7.73,7.73,0,0,0,1.626,2.417,7.585,7.585,0,0,0,12.976-5.33A7.156,7.156,0,0,0,64.441,5.972ZM60.211,18.011a6.566,6.566,0,0,1-6.479-6.479,5.671,5.671,0,0,1,.559-2.46,3.379,3.379,0,0,1,.252-.427,4.681,4.681,0,0,0,.8,2.914,1.754,1.754,0,0,0,1.344.6,1.388,1.388,0,0,0,1.121-.446c.465-.553.322-1.374.142-2.414a12.148,12.148,0,0,1-.234-2.082c0-.1,0-.21-.007-.343-.031-1.06-.095-3.265,1.21-4.608a3.948,3.948,0,0,1,2.438-1.1A5.119,5.119,0,0,0,61.14,2.6a4.925,4.925,0,0,0,2.718,4.328,6.058,6.058,0,0,1,2.831,4.6A6.486,6.486,0,0,1,60.211,18.011Z" transform="translate(-52.611 0)"/></svg>