<svg xmlns="http://www.w3.org/2000/svg" viewBox="0 0 155 97" ><g clip-path="url(#a)" transform="matrix(1 0 0 -1 -95 307)"><path d="M197.1777 292.9574c-12.733 11.665-25.772 16.9-41.34 12.728-15.569-4.172-24.243-15.224-29.438-31.693-3.288-10.422-10.222-16.947-10.222-16.947l49.029 13.672 48.568 13.014s-8.539 1.844-16.597 9.226"/><path d="M247.6692 269.0087c-4.262 15.8-41.694 19.53-83.612 8.407-41.953-11.132-72.463-33.202-68.206-49.087 2.947-11 21.859-16.215 47.152-14.598-1.039.927-1.746 2.018-2.094 3.318-2.307 8.61 13.049 17.509 33.221 22.914 20.172 5.405 37.802 5.119 40.052-3.28.349-1.3.282-2.599-.155-3.921 22.783 11.265 36.618 25.217 33.642 36.247" fill="#4b82d7"/><path d="M181.1012 213.8067c20.313 5.443 35.489 14.594 33.238 22.993-2.251 8.4-19.969 8.737-40.282 3.294-20.312-5.443-35.507-14.524-33.238-22.993 2.27-8.47 19.969-8.737 40.282-3.294" fill="#e7e7e7"/></g></svg>
